WWE.Friday.Night.Smackdown.2012.01.20.HDTV.XviD-vasylius

Format : AVI
Format/Info : Audio Video Interleave
File size : 729 MiB
Duration : 1h 16mn
Overall bit rate : 1 335 Kbps

Video
ID : 0
Format : MPEG-4 Visual
Format profile : Advanced Simple@L5
Format settings, BVOP : 2
Format settings, QPel : No
Format settings, GMC : No warppoints
Format settings, Matrix : Default (H.263)
Muxing mode : Packed bitstream
Codec ID : XVID
Codec ID/Hint : XviD
Duration : 1h 16mn
Bit rate : 1 198 Kbps
Width : 624 pixels
Height : 352 pixels
Display aspect ratio : 16:9
Frame rate : 25.000 fps
Color space : YUV
Chroma subsampling : 4:2:0
Bit depth : 8 bits
Scan type : Progressive
Compression mode : Lossy
Bits/(Pixel*Frame) : 0.218
Stream size : 653 MiB (90%)
Writing library : XviD 1.2.1 (UTC 2008-12-04)

Audio
ID : 1
Format : AC-3
Format/Info : Audio Coding 3
Mode extension : CM (complete main)
Codec ID : 2000
Duration : 1h 16mn
Bit rate mode : Constant
Bit rate : 128 Kbps
Channel(s) : 2 channels
Channel positions : Front: L R
Sampling rate : 48.0 KHz
Bit depth : 16 bits
Compression mode : Lossy
Stream size : 69.8 MiB (10%)
Alignment : Aligned on interleaves
Interleave, duration : 40 ms (1.00 video frame)


Poster:

 
http://i.imgur.com/Zwhk6.jpg


Screens:

 
http://i.imgur.com/O9QAG.jpg

 
http://i.imgur.com/BftDc.jpg

 
http://i.imgur.com/hp35l.png


ENJOY!